<?xml version="1.0" encoding="UTF-8" standalone="no"?><svg xmlns="http://www.w3.org/2000/svg" xmlns:xlink= "http://www.w3.org/1999/xlink" width="600" height="390" style="overflow: hidden;" aria-label="A chart."><defs id="_ABSTRACT_RENDERER_ID_10"><filter id="_ABSTRACT_RENDERER_ID_11"><feGaussianBlur in="SourceAlpha" stdDeviation="2"></feGaussianBlur><feOffset dx="1" dy="1"></feOffset><feComponentTransfer><feFuncA type="linear" slope="0.1"></feFuncA></feComponentTransfer><feMerge><feMergeNode></feMergeNode><feMergeNode in="SourceGraphic"></feMergeNode></feMerge></filter></defs><rect x="0" y="0" width="600" height="390" stroke="none" stroke-width="0" fill="#ffffff"></rect><g><text text-anchor="start" x="115" y="52.05" font-family="Arial" font-size="13" font-weight="bold" stroke="none" stroke-width="0" fill="#000000">Operating System - Work Expirence</text><rect x="115" y="41" width="371" height="13" stroke="none" stroke-width="0" fill-opacity="0" fill="#ffffff"></rect></g><g><rect x="230" y="347" width="141" height="13" stroke="none" stroke-width="0" fill-opacity="0" fill="#ffffff"></rect><g column-id="Windows"><rect x="230" y="347" width="71" height="13" stroke="none" stroke-width="0" fill-opacity="0" fill="#ffffff"></rect><g><text text-anchor="start" x="248" y="358.05" font-family="Arial" font-size="13" stroke="none" stroke-width="0" fill="#222222">Windows</text></g><circle cx="236.5" cy="353.5" r="6.5" stroke="none" stroke-width="0" fill="#3366cc"></circle></g><g column-id="Linux"><rect x="322" y="347" width="49" height="13" stroke="none" stroke-width="0" fill-opacity="0" fill="#ffffff"></rect><g><text text-anchor="start" x="340" y="358.05" font-family="Arial" font-size="13" stroke="none" stroke-width="0" fill="#222222">Linux</text></g><circle cx="328.5" cy="353.5" r="6.5" stroke="none" stroke-width="0" fill="#dc3912"></circle></g></g><g><path d="M301,196L301,76A120,120,0,0,1,415.12678195541844,158.91796067500633L301,196A0,0,0,0,0,301,196" stroke="#ffffff" stroke-width="1" fill="#3366cc"></path><text text-anchor="start" x="343.18740484814316" y="124.59105372929254" font-family="Arial" font-size="13" stroke="none" stroke-width="0" fill="#ffffff">20%</text></g><g><path d="M301,196L415.12678195541844,158.91796067500633A120,120,0,1,1,301,76L301,196A0,0,0,1,0,301,196" stroke="#ffffff" stroke-width="1" fill="#dc3912"></path><text text-anchor="start" x="232.81259515185684" y="276.5089462707075" font-family="Arial" font-size="13" stroke="none" stroke-width="0" fill="#ffffff">80%</text></g><g></g></svg>